<?xml version="1.0" standalone="no"?>
<!DOCTYPE svg PUBLIC "-//W3C//DTD SVG 20010904//EN"
 "http://www.w3.org/TR/2001/REC-SVG-20010904/DTD/svg10.dtd">
<svg version="1.0" xmlns="http://www.w3.org/2000/svg"
 width="512.000000pt" height="512.000000pt" viewBox="0 0 512.000000 512.000000"
 preserveAspectRatio="xMidYMid meet">

<g transform="translate(0.000000,512.000000) scale(0.100000,-0.100000)"
fill="#000000" stroke="none">
<path d="M2321 5110 c-313 -31 -610 -116 -900 -261 -261 -129 -470 -281 -678
-491 -209 -211 -346 -404 -478 -673 -126 -255 -197 -484 -242 -775 -24 -161
-24 -539 0 -700 45 -291 116 -520 241 -775 134 -272 283 -480 498 -692 211
-209 404 -346 673 -478 255 -126 484 -197 775 -242 161 -24 539 -24 700 0 281
44 515 115 756 231 269 130 461 264 673 471 231 226 378 427 517 710 125 255
196 484 241 775 24 161 24 539 0 700 -45 291 -116 520 -241 775 -134 272 -283
480 -498 692 -211 209 -404 346 -673 478 -252 124 -486 197 -765 240 -126 19
-468 27 -599 15z m1382 -1030 c62 -23 117 -76 146 -140 20 -45 21 -59 21
-1375 l0 -1330 -24 -50 c-27 -58 -63 -94 -126 -127 l-45 -23 -1115 0 -1115 0
-45 23 c-63 33 -99 69 -126 127 l-24 50 0 1330 0 1330 24 51 c27 58 91 117
150 138 35 12 203 15 1133 15 1068 1 1093 1 1146 -19z"/>
<path d="M1929 3693 c-54 -33 -54 -30 -57 -428 -2 -245 0 -382 8 -407 5 -20
24 -48 41 -62 l31 -26 608 0 608 0 31 26 c17 14 36 42 41 62 18 59 9 771 -9
798 -37 55 -19 54 -673 54 -537 -1 -606 -2 -629 -17z"/>
<path d="M1450 3560 l0 -130 115 0 115 0 0 130 0 130 -115 0 -115 0 0 -130z"/>
<path d="M3450 3560 l0 -130 110 0 110 0 0 130 0 130 -110 0 -110 0 0 -130z"/>
<path d="M1450 3060 l0 -130 115 0 115 0 0 130 0 130 -115 0 -115 0 0 -130z"/>
<path d="M3450 3060 l0 -130 110 0 110 0 0 130 0 130 -110 0 -110 0 0 -130z"/>
<path d="M1450 2560 l0 -130 115 0 115 0 0 130 0 130 -115 0 -115 0 0 -130z"/>
<path d="M3450 2560 l0 -130 110 0 110 0 0 130 0 130 -110 0 -110 0 0 -130z"/>
<path d="M1929 2343 c-54 -33 -54 -30 -57 -428 -2 -245 0 -382 8 -407 5 -20
24 -48 41 -62 l31 -26 608 0 608 0 31 26 c17 14 36 42 41 62 18 59 9 771 -9
798 -37 55 -19 54 -673 54 -537 -1 -606 -2 -629 -17z"/>
<path d="M1450 2060 l0 -130 115 0 115 0 0 130 0 130 -115 0 -115 0 0 -130z"/>
<path d="M3450 2060 l0 -130 110 0 110 0 0 130 0 130 -110 0 -110 0 0 -130z"/>
<path d="M1450 1560 l0 -130 115 0 115 0 0 130 0 130 -115 0 -115 0 0 -130z"/>
<path d="M3450 1560 l0 -130 110 0 110 0 0 130 0 130 -110 0 -110 0 0 -130z"/>
</g>
</svg>
